<?xml version="1.0" encoding="UTF-8"?>
<svg xmlns="http://www.w3.org/2000/svg" xmlns:xlink="http://www.w3.org/1999/xlink" viewBox="0 0 60 60" width="45px" height="60px">
<g id="surface142358146">
<path style=" stroke:none;fill-rule:nonzero;fill:rgb(100%,100%,100%);fill-opacity:1;" d="M 31.195312 57.601562 C 15.976562 57.601562 3.589844 45.21875 3.589844 30 C 3.589844 14.78125 15.976562 2.398438 31.195312 2.398438 C 38.089844 2.398438 44.691406 4.953125 49.785156 9.59375 L 50.714844 10.445312 L 41.609375 19.546875 L 40.765625 18.824219 C 38.09375 16.539062 34.695312 15.277344 31.195312 15.277344 C 23.078125 15.277344 16.46875 21.882812 16.46875 30 C 16.46875 38.117188 23.078125 44.722656 31.195312 44.722656 C 37.050781 44.722656 41.675781 41.734375 43.855469 36.636719 L 29.996094 36.636719 L 29.996094 24.210938 L 57.054688 24.25 L 57.257812 25.199219 C 58.667969 31.898438 57.539062 41.75 51.820312 48.800781 C 47.085938 54.636719 40.148438 57.601562 31.195312 57.601562 Z M 31.195312 57.601562 "/>
</g>
</svg>
